<svg width="720" height="180" viewBox="0 0 720 180" fill="none" xmlns="http://www.w3.org/2000/svg">
  <defs>
    <linearGradient id="orbGradient" x1="24" y1="20" x2="150" y2="158" gradientUnits="userSpaceOnUse">
      <stop offset="0" stop-color="#8AE234"/>
      <stop offset="0.5" stop-color="#46B630"/>
      <stop offset="1" stop-color="#168D3B"/>
    </linearGradient>
    <linearGradient id="textGradient" x1="188" y1="44" x2="394" y2="144" gradientUnits="userSpaceOnUse">
      <stop offset="0" stop-color="#8BDE39"/>
      <stop offset="0.52" stop-color="#55B838"/>
      <stop offset="1" stop-color="#218E3A"/>
    </linearGradient>
  </defs>

  <circle cx="90" cy="90" r="62" fill="url(#orbGradient)"/>
  <path d="M45 67C61 53 76 45 93 42C85 52 75 61 59 71C52 75 48 74 45 67Z" fill="white" fill-opacity="0.92"/>
  <path d="M55 96C83 80 102 61 119 36C132 38 138 46 140 58C123 81 101 103 74 122C65 122 59 114 55 96Z" fill="white" fill-opacity="0.96"/>
  <path d="M78 135C103 119 124 98 145 68C149 80 149 91 145 104C133 123 117 139 96 151C88 150 81 145 78 135Z" fill="white" fill-opacity="0.9"/>

  <path d="M188 135V44H219.2L250.9 98.4L282.8 44H314V135H285.6V89.3L266.3 122.9H235.3L216.4 89.9V135H188Z" fill="url(#textGradient)"/>
  <path d="M325.4 89.6C325.4 62.1 346.3 41.4 375.4 41.4C404.6 41.4 425.4 62.1 425.4 89.6C425.4 117.1 404.6 137.8 375.4 137.8C346.3 137.8 325.4 117.1 325.4 89.6ZM396.2 89.6C396.2 76.6 387.3 67.6 375.4 67.6C363.6 67.6 354.7 76.6 354.7 89.6C354.7 102.6 363.6 111.6 375.4 111.6C387.3 111.6 396.2 102.6 396.2 89.6Z" fill="url(#textGradient)"/>
  <path d="M437.2 44H466.7V102.7C466.7 110.7 471.2 115.4 479.4 115.4C487.5 115.4 492 110.7 492 102.7V44H521.5V104.3C521.5 124.9 505.6 137.8 479.4 137.8C453.1 137.8 437.2 124.9 437.2 104.3V44Z" fill="url(#textGradient)"/>
  <path d="M540.2 135V44H568.8L615.1 95.9V44H643.9V135H617.2L569.1 81.2V135H540.2Z" fill="url(#textGradient)"/>
  <path d="M663.3 135V44H692.8V135H663.3Z" fill="url(#textGradient)"/>

  <path d="M444.5 137V69.8H464.2V137H444.5Z" fill="#4EA93A"/>
  <path d="M473.4 137V88.6H492.5V94.4C496.2 89.7 501.8 87.3 508.9 87.3C521.7 87.3 530.2 95.5 530.2 109V137H510.9V113.3C510.9 106.5 507.4 103 501.4 103C494.8 103 492.7 107.7 492.7 114.5V137H473.4Z" fill="#4EA93A"/>
  <path d="M535.5 112.7C535.5 98.5 546.2 87.3 560.9 87.3C575.5 87.3 586.4 98.5 586.4 112.7C586.4 126.8 575.5 138 560.9 138C546.2 138 535.5 126.8 535.5 112.7ZM567.3 112.7C567.3 107.4 564.8 103.3 560.9 103.3C557 103.3 554.5 107.4 554.5 112.7C554.5 117.9 557 122 560.9 122C564.8 122 567.3 117.9 567.3 112.7Z" fill="#4EA93A"/>
  <path d="M591.5 112.7C591.5 98.4 602.1 87.3 616.4 87.3C624.4 87.3 630 90.4 633.6 95.4V88.6H652.7V137H633.7V130.4C630.1 135.2 624.5 138 616.6 138C602.2 138 591.5 126.9 591.5 112.7ZM633.6 112.7C633.6 107.4 630.3 103.2 624.8 103.2C619.4 103.2 616.1 107.4 616.1 112.7C616.1 117.9 619.4 122.1 624.8 122.1C630.3 122.1 633.6 117.9 633.6 112.7Z" fill="#4EA93A"/>
  <path d="M663.8 137V69.8H683.1V137H663.8Z" fill="#4EA93A"/>
</svg>
